# xmcd
#
# Track frame offsets: 
#        150
#        22087
#        50970
#
# Disc length: 970 seconds
#
# Revision: 1
# Processed by: cddbd v1.5.2PL0 Copyright (c) Steve Scherf et al.
# Submitted via: ExactAudioCopy v1.3
#
DISCID=2703c803
DTITLE=MIYUKI - Feel the Revolutions
DYEAR=2000
DGENRE=Pop
TTITLE0=Feel the Revolutions (Original mix)
TTITLE1=Feel the Revolutions (TK club mix)
TTITLE2=Feel the Revolutions (Instrumental)
EXTD=YEAR: 2000
EXTT0=
EXTT1=
EXTT2=
PLAYORDER=
